<svg width="51" height="50" xmlns="http://www.w3.org/2000/svg" xmlns:xlink="http://www.w3.org/1999/xlink" xml:space="preserve" overflow="hidden"><defs><clipPath id="clip0"><rect x="930" y="298" width="51" height="50"/></clipPath><clipPath id="clip1"><rect x="931" y="299" width="50" height="49"/></clipPath><clipPath id="clip2"><rect x="931" y="299" width="50" height="49"/></clipPath><clipPath id="clip3"><rect x="931" y="299" width="50" height="49"/></clipPath></defs><g clip-path="url(#clip0)" transform="translate(-930 -298)"><g clip-path="url(#clip1)"><g clip-path="url(#clip2)"><g clip-path="url(#clip3)"><path d="M49 22.3562 49 26.6598C49 28.4236 47.5701 29.8535 45.8063 29.8535L41.9019 29.8535C41.5738 30.9353 41.1434 31.9833 40.6164 32.9834L43.387 35.7539C44.6416 36.9938 44.6534 39.016 43.4135 40.2705 43.4047 40.2794 43.3959 40.2883 43.387 40.2971L40.305 43.371C39.0629 44.6234 37.0408 44.6317 35.7884 43.3895 35.7822 43.3834 35.7761 43.3773 35.7699 43.371L32.9914 40.6084C31.9919 41.1367 30.9437 41.5671 29.8615 41.8939L29.8615 45.8063C29.8615 47.5701 28.4316 49 26.6678 49L22.3562 49C20.5924 49 19.1625 47.5701 19.1625 45.8063L19.1625 41.1753C19.1625 40.6682 19.5736 40.2571 20.0807 40.2571 20.5877 40.2571 20.9989 40.6682 20.9989 41.1753L20.9989 45.7823C20.9937 46.1478 21.1379 46.4997 21.3981 46.7564 21.6531 47.0105 21.9963 47.1563 22.3562 47.1636L26.6678 47.1636C27.4218 47.1636 28.0331 46.5523 28.0331 45.7983L28.0331 41.1753C28.036 40.7493 28.3293 40.3802 28.7437 40.2811 30.1423 39.9186 31.4854 39.368 32.7359 38.6443 33.0975 38.431 33.5578 38.4902 33.8537 38.788L37.1193 42.0456C37.6521 42.5792 38.5165 42.5798 39.0501 42.047 39.0506 42.0465 39.051 42.0461 39.0515 42.0456L42.1335 38.9716C42.6641 38.4337 42.6641 37.5694 42.1335 37.0314L38.8199 33.7738C38.5234 33.4805 38.4642 33.0231 38.6762 32.664 39.4009 31.414 39.9516 30.0708 40.313 28.6718 40.419 28.2653 40.7872 27.9825 41.2073 27.9852L45.8222 27.9852C46.5573 27.9641 47.1469 27.3709 47.1636 26.6358L47.1636 22.3562C47.1592 21.604 46.5505 20.9953 45.7983 20.9909L41.1753 20.9909C40.7553 20.9935 40.387 20.7107 40.2811 20.3042 39.9186 18.9056 39.368 17.5626 38.6443 16.312 38.415 15.9456 38.4751 15.4685 38.788 15.1703L42.0456 11.9765C42.5807 11.4405 42.5807 10.5724 42.0456 10.0363L38.9716 6.92244C38.4337 6.39178 37.5694 6.39178 37.0314 6.92244L33.8377 10.212C33.5405 10.5139 33.0754 10.5732 32.7119 10.3557 31.4614 9.63201 30.1184 9.08141 28.7197 8.71892 28.3129 8.6168 28.0271 8.25207 28.0251 7.83265L28.0251 3.19374C28.0383 2.44863 27.445 1.83386 26.6999 1.82063 26.6892 1.82043 26.6784 1.82037 26.6678 1.82043L22.3562 1.82043C21.6022 1.81601 20.9873 2.42369 20.9829 3.17773 20.9829 3.18307 20.9829 3.1884 20.9829 3.19374L20.9829 7.83265C20.9847 8.25072 20.7015 8.61624 20.2962 8.71892 18.8976 9.08141 17.5546 9.63201 16.3041 10.3557 15.9388 10.5775 15.4687 10.518 15.1703 10.212L11.9765 6.95437C11.4386 6.42372 10.5742 6.42372 10.0363 6.95437L6.92244 10.0284C6.38743 10.5644 6.38743 11.4325 6.92244 11.9686L10.188 15.2262C10.4832 15.5234 10.5421 15.9817 10.3318 16.344 9.61756 17.5946 9.08021 18.938 8.73489 20.3362 8.62646 20.741 8.25974 21.0227 7.84064 21.0228L3.19374 21.0228C2.45821 21.0312 1.86154 21.6208 1.84439 22.3562L1.84439 26.6438C1.83556 27.3934 2.43605 28.0082 3.18564 28.017 3.18835 28.017 3.19104 28.0171 3.19374 28.0171L7.83265 28.0171C8.25207 28.0191 8.6168 28.3049 8.71892 28.7117 9.08141 30.1104 9.63201 31.4533 10.3557 32.7039 10.572 33.065 10.5125 33.5272 10.212 33.8217L6.95437 37.0714C6.42895 37.6083 6.42895 38.4666 6.95437 39.0036L10.0284 42.0855C10.5663 42.6162 11.4306 42.6162 11.9686 42.0855L15.2262 38.8279C15.5855 38.4686 16.1682 38.4686 16.5276 38.8279 16.887 39.1873 16.887 39.77 16.5276 40.1294L13.27 43.395C12.0107 44.6379 9.98619 44.6379 8.7269 43.395L5.65292 40.305C4.40059 39.0629 4.3923 37.0408 5.63441 35.7884 5.64056 35.7822 5.64673 35.7761 5.65292 35.7699L8.4235 32.9914C7.89594 31.9906 7.46291 30.9427 7.13003 29.8615L3.19374 29.8615C1.42989 29.8615 0 28.4316 0 26.6678L0 22.3562C-7.09153e-16 20.5924 1.42989 19.1625 3.19374 19.1625L7.09809 19.1625C7.42691 18.0798 7.8601 17.0315 8.39156 16.0326L5.58905 13.27C4.33451 12.0301 4.32263 10.008 5.56251 8.75341 5.5713 8.74455 5.58015 8.73568 5.58905 8.7269L8.66303 5.65292C9.90292 4.39838 11.925 4.3865 13.1796 5.62638 13.1885 5.63518 13.1973 5.64402 13.2061 5.65292L15.9767 8.4235C16.9949 7.89175 18.0617 7.45862 19.1625 7.13003L19.1625 3.19374C19.1625 1.42989 20.5924 -3.54577e-16 22.3562 -3.54577e-16L26.6598 0C27.5177-0.00284037 28.3406 0.339582 28.9433 0.950139 29.5323 1.54827 29.8622 2.35427 29.8615 3.19374L29.8615 7.10608C30.9425 7.43621 31.9904 7.86657 32.9914 8.39156L35.73 5.60502C36.9699 4.35048 38.992 4.3386 40.2466 5.57848 40.2555 5.58727 40.2643 5.59612 40.2731 5.60502L43.3471 8.679C44.6017 9.91889 44.6135 11.941 43.3736 13.1956 43.3648 13.2045 43.3559 13.2133 43.3471 13.2221L40.5845 15.9927C41.1162 17.0044 41.5468 18.0662 41.87 19.1625L45.7823 19.1625C47.5461 19.1492 48.9867 20.5683 48.9999 22.3322 49 22.3402 49 22.3482 49 22.3562ZM24.4561 16.7671C25.9785 16.7548 27.4705 17.1938 28.7437 18.0287 29.167 18.3087 29.7372 18.1925 30.0172 17.7692 30.2972 17.3459 30.181 16.7757 29.7577 16.4957 25.3383 13.5854 19.3965 14.8087 16.4862 19.2282 13.5759 23.6475 14.7992 29.5894 19.2187 32.4997 23.638 35.41 29.5799 34.1866 32.4902 29.7672 33.5102 28.2182 34.0588 26.4065 34.0692 24.5519 34.0852 24.2354 34.0852 23.9183 34.0692 23.6018 34.0351 23.0983 33.6074 22.713 33.1031 22.7315 32.6009 22.7525 32.2108 23.1768 32.2319 23.679 32.2321 23.6852 32.2324 23.6914 32.2328 23.6976 32.2486 23.9635 32.2486 24.2301 32.2328 24.496 32.2461 28.7778 28.7858 32.2595 24.504 32.2727 20.2222 32.2859 16.7405 28.8256 16.7273 24.5438 16.7141 20.2621 20.1744 16.7804 24.4561 16.7671Z" fill="#222F3F" fill-rule="nonzero" fill-opacity="1" transform="matrix(1.02041 0 0 1 931 299)"/></g></g></g></g></svg>