<svg width="51" height="52" xmlns="http://www.w3.org/2000/svg" xmlns:xlink="http://www.w3.org/1999/xlink" xml:space="preserve" overflow="hidden"><defs><clipPath id="clip0"><rect x="614" y="264" width="51" height="52"/></clipPath><clipPath id="clip1"><rect x="615" y="265" width="50" height="50"/></clipPath><clipPath id="clip2"><rect x="615" y="265" width="50" height="50"/></clipPath><clipPath id="clip3"><rect x="615" y="265" width="50" height="50"/></clipPath></defs><g clip-path="url(#clip0)" transform="translate(-614 -264)"><g clip-path="url(#clip1)"><g clip-path="url(#clip2)"><g clip-path="url(#clip3)"><path d="M640.188 265 640 265C626.193 265 615 276.193 615 290 615 303.807 626.193 315 640 315L640.188 315C653.995 315 665.188 303.807 665.188 290 665.188 276.193 653.995 265 640.188 265ZM647.939 279.687 632.273 279.687C633.823 271.772 637.03 266.917 640.073 266.885L640.163 266.885C643.215 266.958 646.389 271.797 647.939 279.687ZM648.894 290.041C648.895 292.857 648.685 295.669 648.265 298.453L631.947 298.453C631.521 295.656 631.311 292.83 631.319 290 631.31 287.165 631.52 284.333 631.947 281.531L648.265 281.531C648.688 284.334 648.898 287.165 648.894 290ZM640.163 313.14 640.073 313.14C637.022 313.14 633.823 308.244 632.273 300.379L647.939 300.379C646.389 308.244 643.215 313.05 640.163 313.14ZM635.57 267.317C633.252 269.814 631.408 274.179 630.372 279.687L619.357 279.687C622.563 273.283 628.546 268.718 635.57 267.317ZM616.885 290C616.886 287.094 617.44 284.214 618.517 281.514L618.557 281.514 630.054 281.514C629.227 287.133 629.227 292.842 630.054 298.461L623.363 298.461C622.845 298.461 622.425 298.881 622.425 299.399 622.425 299.918 622.845 300.338 623.363 300.338L630.372 300.338C631.408 305.813 633.252 310.17 635.57 312.666 624.731 310.537 616.907 301.046 616.885 290ZM644.675 312.642C646.976 310.145 648.812 305.796 649.84 300.354L660.643 300.354C657.471 306.669 651.592 311.193 644.675 312.642ZM661.508 298.453 650.158 298.453C650.572 295.646 650.78 292.813 650.778 289.976 650.78 287.141 650.573 284.31 650.158 281.506L656.841 281.506C657.361 281.555 657.822 281.172 657.871 280.652 657.919 280.131 657.537 279.67 657.016 279.621 656.958 279.616 656.899 279.616 656.841 279.621L649.84 279.621C648.812 274.179 646.976 269.83 644.675 267.334 657.168 269.895 665.219 282.098 662.658 294.591 662.388 295.909 662.003 297.202 661.508 298.453Z" fill="#222F3F" fill-rule="nonzero" fill-opacity="1"/></g></g></g></g></svg>