<svg width="50" height="51" xmlns="http://www.w3.org/2000/svg" xmlns:xlink="http://www.w3.org/1999/xlink" xml:space="preserve" overflow="hidden"><defs><clipPath id="clip0"><rect x="408" y="277" width="50" height="51"/></clipPath><clipPath id="clip1"><rect x="409" y="278" width="49" height="50"/></clipPath><clipPath id="clip2"><rect x="409" y="278" width="49" height="50"/></clipPath><clipPath id="clip3"><rect x="409" y="278" width="49" height="50"/></clipPath></defs><g clip-path="url(#clip0)" transform="translate(-408 -277)"><g clip-path="url(#clip1)"><g clip-path="url(#clip2)"><g clip-path="url(#clip3)"><path d="M48.2504 43.9684 48.2504 46.536C48.2504 47.8573 47.1795 48.9282 45.8583 48.9282L32.3823 48.9282C31.5808 48.937 30.924 48.2945 30.9151 47.493 30.9151 47.4877 30.9151 47.4823 30.9151 47.477L30.9151 44.391C30.8256 42.5744 29.2804 41.1744 27.4638 41.2638 25.7723 41.3471 24.4199 42.6996 24.3365 44.391L24.3365 47.453C24.3298 47.8715 24.1476 48.268 23.8342 48.5455 23.5359 48.7875 23.1568 48.9073 22.7736 48.8804L10.1987 49C8.87749 49 7.80651 47.929 7.80651 46.6078L7.80651 32.9803 5.11928 32.9803C2.28758 32.9803-0.0079739 30.6848-0.0079739 27.8531-0.0079739 25.0213 2.28758 22.7258 5.11928 22.7258L7.88625 22.7258 7.88625 10.2545C7.90801 8.94894 8.9727 7.90201 10.2784 7.9022L22.5025 7.81448 22.5025 5.11928C22.2841 2.30484 24.3887-0.153736 27.2031-0.372111 30.0176-0.590484 32.4761 1.51404 32.6945 4.32848 32.7153 4.59701 32.7149 4.86677 32.6932 5.13523L32.6932 7.82246 45.8423 7.82246C47.1635 7.82246 48.2345 8.89344 48.2345 10.2146L48.2345 21.8965C48.2301 22.9032 47.4152 23.7182 46.4085 23.7225L43.1072 23.7225C41.2906 23.6331 39.7454 25.0332 39.6559 26.8498 39.5665 28.6664 40.9666 30.2116 42.7833 30.3011 42.8911 30.3064 42.9993 30.3064 43.1072 30.3011L46.3766 30.3011C47.3819 30.3011 48.1982 31.1138 48.2026 32.1191L48.2026 39.7821C48.2026 40.2885 47.792 40.6991 47.2856 40.6991 46.7792 40.6991 46.3686 40.2885 46.3686 39.7821L46.3686 32.1191 43.0993 32.1191C40.2676 32.1191 37.972 29.8236 37.972 26.9919 37.972 24.1601 40.2676 21.8646 43.0993 21.8646L46.3766 21.8646 46.3766 10.2067C46.3723 9.909 46.132 9.66875 45.8343 9.66444L32.3344 9.66444C31.5272 9.66006 30.8752 9.00444 30.8752 8.19723L30.8752 5.12726C30.8796 3.31726 29.4159 1.8464 27.6059 1.84199 25.8049 1.86788 24.3537 3.32619 24.3365 5.12726L24.3365 8.18926C24.3414 8.57145 24.1919 8.93937 23.9219 9.20993 23.6762 9.46246 23.3479 9.61811 22.9969 9.64849L22.8853 9.64849 10.2625 9.73621C10.103 9.80797 9.97543 9.78405 9.87974 9.88771 9.78381 9.9826 9.72927 10.1116 9.72823 10.2465L9.72823 23.1245C9.72385 23.9317 9.06823 24.5837 8.26102 24.5837L5.13523 24.5837C3.31642 24.5837 1.84199 26.0582 1.84199 27.877 1.84199 29.6958 3.31642 31.1702 5.13523 31.1702L8.2371 31.1702C9.02015 31.1787 9.65527 31.8067 9.67242 32.5896L9.67242 46.6317C9.67672 46.9206 9.9098 47.1537 10.1987 47.158L22.5025 47.0464 22.5025 44.391C22.5025 41.5593 24.7981 39.2638 27.6298 39.2638 30.4615 39.2638 32.757 41.5593 32.757 44.391L32.757 47.0464 45.8822 47.0464C46.1741 47.042 46.4085 46.8041 46.4085 46.5121L46.4085 43.9684C46.4558 43.4598 46.9066 43.0859 47.4153 43.1332 47.8583 43.1745 48.2091 43.5254 48.2504 43.9684Z" fill="#222F3F" fill-rule="nonzero" fill-opacity="1" transform="matrix(1 0 0 1.02041 409.375 278)"/></g></g></g></g></svg>