<svg width="48" height="51" xmlns="http://www.w3.org/2000/svg" xmlns:xlink="http://www.w3.org/1999/xlink" xml:space="preserve" overflow="hidden"><defs><clipPath id="clip0"><rect x="276" y="277" width="48" height="51"/></clipPath><clipPath id="clip1"><rect x="276" y="278" width="48" height="50"/></clipPath><clipPath id="clip2"><rect x="276" y="278" width="48" height="50"/></clipPath><clipPath id="clip3"><rect x="276" y="278" width="48" height="50"/></clipPath></defs><g clip-path="url(#clip0)" transform="translate(-276 -277)"><g clip-path="url(#clip1)"><g clip-path="url(#clip2)"><g clip-path="url(#clip3)"><path d="M46.3473 7.55583C47.8131 9.88817 47.8293 12.9575 46.3473 15.9782L41.6907 25.3319C41.5391 25.6427 41.2265 25.8427 40.8808 25.8502 40.737 25.855 40.5944 25.8215 40.4678 25.753 40.009 25.5305 39.8175 24.9782 40.04 24.5194 40.0422 24.5149 40.0444 24.5104 40.0467 24.5058L44.7195 15.1602C45.8856 12.7307 45.9099 10.3012 44.7924 8.54383 43.772 6.92415 41.9012 6.02522 39.5365 6.02522L38.1598 6.02522 38.1598 25.8502C38.1402 31.6783 34.6301 36.9274 29.2515 39.1721 28.7751 39.3653 28.2312 39.147 28.0205 38.6781 27.8243 38.2017 28.0482 37.6562 28.5226 37.4552 33.1956 35.4891 36.2407 30.9199 36.2566 25.8502L36.2566 1.87073 11.1515 1.87073 11.1515 25.8502C11.156 32.793 16.7855 38.4189 23.7284 38.4189 24.2427 38.4189 24.6597 38.8359 24.6597 39.3502L24.6597 47.7807 37.2527 47.7807C37.7671 47.7807 38.1841 48.1977 38.1841 48.712 38.1841 49.2263 37.7671 49.6433 37.2527 49.6433L10.2283 49.6433C9.71397 49.6433 9.29699 49.2263 9.29699 48.712 9.29699 48.1977 9.71397 47.7807 10.2283 47.7807L22.789 47.7807 22.789 40.2572C15.2026 39.7504 9.30565 33.4534 9.29699 25.8502L9.29699 6.02522 7.94455 6.02522C5.57171 6.02522 3.70098 6.90795 2.68058 8.51144 1.57109 10.2688 1.59539 12.6983 2.76966 15.1764L7.42625 24.5058C7.65801 24.96 7.47771 25.516 7.02355 25.7478 7.02012 25.7496 7.01668 25.7513 7.01323 25.753 6.88296 25.8195 6.73834 25.8528 6.59211 25.8502 6.2464 25.8427 5.93385 25.6427 5.78227 25.3319L1.08519 15.9944C-0.372527 12.9008-0.364429 9.81528 1.08519 7.50724 2.47812 5.34496 4.90764 4.15449 7.94455 4.15449L9.29699 4.15449 9.29699 0.915121C9.30144 0.40526 9.71835-0.00445348 10.2282-6.26985e-07 10.2282-4.20188e-07 10.2283-2.12481e-07 10.2283-3.86162e-09L37.2527 0C37.7671 5.39463e-16 38.1841 0.416966 38.1841 0.931318L38.1841 4.17069 39.5365 4.17069C42.5005 4.15449 44.9948 5.39355 46.3473 7.55583Z" fill="#222F3F" fill-rule="nonzero" fill-opacity="1" transform="matrix(1 0 0 1.00751 276.272 278)"/></g></g></g></g></svg>