<?xml version="1.0" encoding="utf-8"?>
<!-- Generator: Adobe Illustrator 23.0.1, SVG Export Plug-In . SVG Version: 6.00 Build 0)  -->
<svg version="1.1" id="symbol_x5F_black_x5F_rgb" xmlns="http://www.w3.org/2000/svg" xmlns:xlink="http://www.w3.org/1999/xlink"
	 x="0px" y="0px" viewBox="0 0 792 612" style="enable-background:new 0 0 792 612;" xml:space="preserve">
<style type="text/css">
	.st0{fill:#FF4F1F;}
</style>
<path class="st0" d="M430.2,333c28.1,0,50.9-22.8,50.9-50.9v0c0-28.1-22.8-50.9-50.9-50.9l0,0h-76.7c-28.1,0-50.9,22.8-50.9,50.9v0
	c0,28.1,22.8,50.9,50.9,50.9H430.2z M353.5,316.3c-18.8,0-34.1-15.3-34.1-34.1c0-18.8,15.3-34.1,34.1-34.1h76.7
	c18.8,0,34.1,15.3,34.1,34.1c0,18.8-15.3,34.1-34.1,34.1H353.5z"/>
<path class="st0" d="M398.1,433.2c-18.8,0-34.1-15.3-34.1-34.1s15.3-34.1,34.1-34.1h32.1c18.8,0,34.1,15.3,34.1,34.1
	s-15.3,34.1-34.1,34.1H398.1z M430.2,450c28.1,0,50.9-22.8,50.9-50.9v0c0-28.1-22.8-50.9-50.9-50.9l0,0h-32.1
	c-28.1,0-50.9,22.8-50.9,50.9v0c0,28.1,22.8,50.9,50.9,50.9H430.2z"/>
<path class="st0" d="M452.1,177.2c7.6,0,13.7,6.2,13.7,13.7s-6.2,13.7-13.7,13.7c-7.6,0-13.7-6.2-13.7-13.7S444.5,177.2,452.1,177.2
	 M452.1,162c-16,0-28.9,13-28.9,28.9s13,28.9,28.9,28.9c16,0,28.9-13,28.9-28.9S468.1,162,452.1,162L452.1,162z"/>
<g>
	<path class="st0" d="M473.1,445.3c0-0.9,0.2-1.6,0.6-2.4s0.9-1.3,1.6-1.7s1.5-0.6,2.3-0.6s1.6,0.2,2.3,0.6s1.2,1,1.6,1.7
		s0.6,1.5,0.6,2.4c0,0.9-0.2,1.7-0.6,2.4c-0.4,0.7-1,1.3-1.6,1.7c-0.7,0.4-1.4,0.6-2.3,0.6c-0.8,0-1.6-0.2-2.3-0.6s-1.2-1-1.6-1.7
		C473.3,447,473.1,446.2,473.1,445.3z M481.4,445.3c0-0.7-0.2-1.4-0.5-2s-0.8-1.1-1.3-1.4s-1.2-0.5-1.9-0.5c-0.7,0-1.3,0.2-1.9,0.5
		c-0.6,0.3-1,0.8-1.4,1.4c-0.3,0.6-0.5,1.3-0.5,2c0,0.7,0.2,1.4,0.5,2c0.3,0.6,0.8,1.1,1.4,1.4c0.6,0.4,1.2,0.5,1.9,0.5
		s1.3-0.2,1.9-0.5s1-0.8,1.4-1.5C481.2,446.7,481.4,446,481.4,445.3z M476.7,445.8v2.1h-1v-5.4h1.8c0.6,0,1.1,0.1,1.5,0.4
		s0.6,0.7,0.6,1.2c0,0.5-0.2,0.8-0.7,1.1c0.3,0.1,0.4,0.3,0.5,0.5c0.1,0.2,0.2,0.5,0.2,0.9c0,0.3,0,0.6,0,0.7c0,0.1,0,0.3,0.1,0.4
		v0.1h-1c-0.1-0.1-0.1-0.6-0.1-1.2c0-0.3-0.1-0.6-0.2-0.7s-0.4-0.2-0.7-0.2H476.7z M476.7,444.9h0.9c0.3,0,0.6-0.1,0.8-0.2
		c0.2-0.1,0.3-0.3,0.3-0.5c0-0.3-0.1-0.5-0.2-0.6s-0.4-0.2-0.8-0.2h-0.9V444.9z"/>
</g>
</svg>
