<svg width="209" height="43" xmlns="http://www.w3.org/2000/svg" xmlns:xlink="http://www.w3.org/1999/xlink" xml:space="preserve" overflow="hidden"><defs><clipPath id="clip0"><rect x="496" y="198" width="209" height="43"/></clipPath><clipPath id="clip1"><rect x="496" y="199" width="209" height="42"/></clipPath><clipPath id="clip2"><rect x="496" y="199" width="209" height="42"/></clipPath><clipPath id="clip3"><rect x="496" y="199" width="209" height="42"/></clipPath></defs><g clip-path="url(#clip0)" transform="translate(-496 -198)"><g clip-path="url(#clip1)"><g clip-path="url(#clip2)"><g clip-path="url(#clip3)"><path d="M202.219 10.7683 201.232 10.7683 201.232 10.3735 203.739 10.3735 203.739 10.7683 202.752 10.7683 202.752 13.5023 202.298 13.5023Z" fill="#FFFFFF" fill-rule="nonzero" fill-opacity="1" transform="matrix(1 0 0 1.00478 496.864 199)"/><path d="M205.476 13.5023 204.598 10.7881 204.598 13.5023 204.154 13.5023 204.154 10.3735 204.904 10.3735 205.713 12.9792 206.523 10.3735 207.273 10.3735 207.273 13.5023 206.829 13.5023 206.829 10.7881 205.95 13.5023Z" fill="#FFFFFF" fill-rule="nonzero" fill-opacity="1" transform="matrix(1 0 0 1.00478 496.864 199)"/><path d="M20.9938 2.42805C22.0213 2.50294 22.7936 3.39664 22.7187 4.42417 22.6514 5.34751 21.9171 6.0818 20.9938 6.14909L20.9049 6.14909C19.9504 6.09979 19.1875 5.33692 19.1382 4.38234 19.096 3.85669 19.2831 3.33846 19.6514 2.96104 20.0019 2.5949 20.4869 2.38806 20.9938 2.38857M20.9938-0.0394805C18.628-0.0939913 16.6659 1.77967 16.6114 4.14545 16.5569 6.51124 18.4306 8.47328 20.7964 8.52779L20.9938 8.52779C23.3623 8.41413 25.1902 6.40193 25.0765 4.03342 24.9705 1.82398 23.2032 0.0566763 20.9938-0.0493497Z" fill="#FF4F1F" fill-rule="nonzero" fill-opacity="1" transform="matrix(1 0 0 1.00478 496.864 199)"/><path d="M18.1413 29.9065C20.5262 30.0205 22.367 32.0463 22.253 34.4312 22.1466 36.6564 20.3665 38.4364 18.1413 38.5429L13.4629 38.5429C11.078 38.6569 9.05222 36.816 8.93817 34.4312 8.82412 32.0463 10.665 30.0205 13.0498 29.9065 13.1874 29.8999 13.3253 29.8999 13.4629 29.9065L18.1413 29.9065M18.1413 27.0836 13.4629 27.0836C9.51897 26.937 6.20294 30.0153 6.05629 33.9591 5.90964 37.903 8.98791 41.2191 12.9318 41.3657 13.1088 41.3723 13.2859 41.3723 13.4629 41.3657L18.1413 41.3657C22.0852 41.2191 25.1635 37.903 25.0168 33.9591 24.8778 30.221 21.8794 27.2226 18.1413 27.0836Z" fill="#FF4F1F" fill-rule="nonzero" fill-opacity="1" transform="matrix(1 0 0 1.00478 496.864 199)"/><path d="M18.1413 13.1964C20.5262 13.3104 22.367 15.3362 22.253 17.7211 22.1466 19.9463 20.3665 21.7263 18.1413 21.8327L7.1361 21.8327C4.75124 21.7187 2.91038 19.6929 3.02443 17.308 3.13085 15.0828 4.91086 13.3028 7.1361 13.1964L18.1413 13.1964M18.1413 10.3735 7.1361 10.3735C3.18677 10.3735-0.0148052 13.5751-0.0148052 17.5244-0.0148052 21.4738 3.18677 24.6753 7.1361 24.6753L18.1413 24.6753C22.0852 24.5287 25.1635 21.2126 25.0168 17.2688 24.8778 13.5306 21.8794 10.5322 18.1413 10.3932Z" fill="#FF4F1F" fill-rule="nonzero" fill-opacity="1" transform="matrix(1 0 0 1.00478 496.864 199)"/><path d="M63.5143 41.3657 63.5143 10.3735 80.9647 10.3735 80.9647 13.4332 66.6135 13.4332 66.6135 24.1719 79.494 24.1719 79.494 27.1823 66.6135 27.1823 66.6135 38.306 80.9647 38.306 80.9647 41.3657 63.5143 41.3657Z" fill="#FFFFFF" fill-rule="nonzero" fill-opacity="1" transform="matrix(1 0 0 1.00478 496.864 199)"/><path d="M114.878 41.3657 114.878 10.3735 132.329 10.3735 132.329 13.4332 117.978 13.4332 117.978 24.1719 130.858 24.1719 130.858 27.1823 117.978 27.1823 117.978 38.306 132.329 38.306 132.329 41.3657 114.878 41.3657Z" fill="#FFFFFF" fill-rule="nonzero" fill-opacity="1" transform="matrix(1 0 0 1.00478 496.864 199)"/><path d="M167.101 41.3657 167.101 28.5148 156.629 10.3735 160.103 10.3735 168.671 25.2281 177.198 10.3735 180.663 10.3735 170.201 28.5148 170.201 41.3657 167.101 41.3657Z" fill="#FFFFFF" fill-rule="nonzero" fill-opacity="1" transform="matrix(1 0 0 1.00478 496.864 199)"/><path d="M108.522 41.3657 108.522 10.3735 105.423 10.3735 105.423 35.7003 90.0847 10.3735 86.9756 10.3735 86.9756 41.3657 90.0847 41.3657 90.0847 16.039 105.423 41.3657 108.522 41.3657Z" fill="#FFFFFF" fill-rule="nonzero" fill-opacity="1" transform="matrix(1 0 0 1.00478 496.864 199)"/><path d="M47.12 28.0509 54.5522 28.0509 54.5522 30.5086C54.5522 36.5787 50.7127 38.7403 47.12 38.7403 43.5273 38.7403 39.6977 36.5787 39.6977 30.5086L39.6977 21.2306C39.6977 15.1605 43.5371 12.999 47.12 12.999 50.855 12.8404 54.0604 15.6337 54.414 19.3553L57.533 19.3553C56.8125 13.6208 52.7855 9.93922 47.12 9.93922 40.8229 9.93922 36.5886 14.4696 36.5886 21.2109L36.5886 30.5283C36.5886 37.2696 40.8229 41.8 47.12 41.8 53.4171 41.8 57.6514 37.2696 57.6514 30.5283L57.6514 25.0306 47.12 25.0306Z" fill="#FFFFFF" fill-rule="nonzero" fill-opacity="1" transform="matrix(1 0 0 1.00478 496.864 199)"/><path d="M139.228 31.9891C139.495 36.1444 142.258 38.7403 146.137 38.7403 150.016 38.7403 152.217 36.7662 152.217 33.3018 152.258 30.7969 150.507 28.6188 148.052 28.12L142.821 26.6987C139.037 25.7455 136.459 22.2448 136.672 18.3486 136.672 13.3247 140.255 9.93922 145.555 9.93922 151.664 9.93922 154.349 14.1932 154.931 18.4473L151.842 18.4473C151.131 14.894 148.881 12.999 145.555 12.999 142.021 12.999 139.731 15.1013 139.731 18.3486 139.587 20.8707 141.285 23.1284 143.749 23.6883L149.148 25.159C152.888 26.0726 155.475 29.4835 155.346 33.3314 155.346 38.5725 151.822 41.8296 146.157 41.8296 139.119 41.8296 136.287 36.4504 136.129 32.0187Z" fill="#FFFFFF" fill-rule="nonzero" fill-opacity="1" transform="matrix(1 0 0 1.00478 496.864 199)"/><path d="M185.075 31.9891C185.341 36.1444 188.105 38.7403 191.984 38.7403 195.863 38.7403 198.064 36.7662 198.064 33.3018 198.099 30.7785 196.318 28.5938 193.839 28.12L188.608 26.6987C184.824 25.7455 182.247 22.2448 182.459 18.3486 182.459 13.3247 186.042 9.93922 191.342 9.93922 197.452 9.93922 200.137 14.1932 200.729 18.4473L197.63 18.4473C196.919 14.894 194.669 12.999 191.342 12.999 187.809 12.999 185.519 15.1013 185.519 18.3486 185.38 20.8888 187.108 23.1532 189.595 23.6883L195.004 25.159C198.74 26.0765 201.322 29.4865 201.193 33.3314 201.193 38.5725 197.669 41.8296 192.004 41.8296 184.966 41.8296 182.133 36.4504 181.976 32.0187Z" fill="#FFFFFF" fill-rule="nonzero" fill-opacity="1" transform="matrix(1 0 0 1.00478 496.864 199)"/></g></g></g></g></svg>